<svg viewBox="0 0 62 16" fill="none" xmlns="http://www.w3.org/2000/svg"><path d="M34.191 4.471v7.038c0 2.833-1.506 4.488-4.188 4.488-2.683 0-4.14-1.658-4.14-4.488V4.471c0-2.814 1.474-4.471 4.14-4.471 2.666 0 4.188 1.657 4.188 4.471zm-2.798-.462c0-.977-.53-1.606-1.342-1.606-.813 0-1.391.63-1.391 1.606v7.982c0 .977.562 1.606 1.375 1.606.812 0 1.358-.63 1.358-1.606V4.01zM41.891 4.587V.167h2.618v15.65H41.79L38.958 6.36h-.148l.1 3.562v5.895h-2.634V.167h3.032l2.519 8.429h.167l-.1-4.009h-.003zM53.22 13.45v2.367h-6.424V.167h2.766V13.45h3.658zM57.557 4.67L58.765.168l3.048-.016-3.61 10.832v4.837h-2.75v-4.902L51.878.148l3.132.016 1.224 4.503.562 2.136h.215l.546-2.136v.004z" fill="#fff"></path><path d="M15.014.167l-3.34 10.382c-.1.308-.556.238-.556-.087V.167H.871v4.67h4.95v10.98h9.73L20.84.167h-5.827z" fill="#FF153C"></path></svg>